<?xml version="1.0" encoding="UTF-8" standalone="no"?>
<!DOCTYPE svg PUBLIC "-//W3C//DTD SVG 1.1//EN" "http://www.w3.org/Graphics/SVG/1.1/DTD/svg11.dtd">
<svg version="1.1" xmlns="http://www.w3.org/2000/svg" xmlns:xlink="http://www.w3.org/1999/xlink" preserveAspectRatio="xMidYMid meet" viewBox="0 0 135 135" width="135" height="135"><defs><path d="M134.97 67.49C134.97 104.73 104.73 134.97 67.49 134.97C30.24 134.97 0 104.73 0 67.49C0 30.24 30.24 0 67.49 0C104.73 0 134.97 30.24 134.97 67.49Z" id="bvBC0MUAo"></path><path d="M67.29 -1.69L67.44 -1.68L67.59 -1.66L67.74 -1.63L67.89 -1.6L68.03 -1.56L68.18 -1.51L68.32 -1.46L68.46 -1.41L68.59 -1.35L68.72 -1.28L68.85 -1.21L68.98 -1.14L69.1 -1.06L69.22 -0.98L69.33 -0.89L69.45 -0.8L69.56 -0.7L69.66 -0.6L69.76 -0.49L69.86 -0.39L69.95 -0.27L70.04 -0.16L70.12 -0.04L70.2 0.08L70.28 0.21L70.35 0.34L70.41 0.47L70.47 0.61L70.52 0.74L70.57 0.88L70.62 1.03L70.66 1.17L70.69 1.32L70.72 1.47L70.74 1.62L70.75 1.78L70.76 1.93L70.77 2.09L70.77 64.09L71.42 64.24L72.07 64.4L72.71 64.59L73.34 64.8L73.96 65.03L74.57 65.28L75.17 65.55L75.76 65.85L76.34 66.16L76.9 66.48L77.45 66.83L77.99 67.2L78.52 67.58L79.03 67.98L79.53 68.4L80.01 68.83L80.48 69.28L80.94 69.74L81.37 70.22L81.8 70.71L82.2 71.22L82.59 71.74L82.96 72.28L83.31 72.82L83.65 73.38L83.97 73.96L84.26 74.54L84.54 75.13L84.8 75.74L85.04 76.35L85.26 76.98L85.45 77.62L85.63 78.26L85.78 78.91L85.91 79.57L86.02 80.24L86.1 80.92L86.16 81.6L86.2 82.29L86.21 82.98L86.2 83.68L86.16 84.37L86.1 85.05L86.02 85.73L85.91 86.4L85.78 87.06L85.62 87.72L85.45 88.36L85.25 89L85.03 89.62L84.8 90.24L84.54 90.84L84.26 91.44L83.96 92.02L83.64 92.59L83.31 93.15L82.95 93.7L82.58 94.23L82.19 94.75L81.79 95.26L81.36 95.75L80.92 96.23L80.47 96.7L80 97.14L79.52 97.58L79.02 97.99L78.5 98.39L77.98 98.77L77.44 99.14L76.89 99.48L76.32 99.81L75.75 100.12L75.16 100.41L74.56 100.68L73.95 100.93L73.33 101.16L72.71 101.37L72.07 101.56L71.42 101.73L70.77 101.87L70.77 129.47L70.76 129.63L70.75 129.78L70.74 129.94L70.72 130.09L70.69 130.24L70.66 130.39L70.62 130.53L70.57 130.68L70.52 130.82L70.47 130.95L70.41 131.09L70.35 131.22L70.28 131.35L70.2 131.48L70.12 131.6L70.04 131.72L69.95 131.83L69.86 131.95L69.76 132.05L69.66 132.16L69.56 132.26L69.45 132.36L69.33 132.45L69.22 132.54L69.1 132.62L68.98 132.7L68.85 132.78L68.72 132.85L68.59 132.91L68.46 132.97L68.32 133.02L68.18 133.07L68.03 133.12L67.89 133.16L67.74 133.19L67.59 133.22L67.44 133.24L67.29 133.25L67.13 133.26L66.97 133.27L66.82 133.26L66.66 133.25L66.51 133.24L66.36 133.22L66.21 133.19L66.06 133.16L65.91 133.12L65.77 133.07L65.63 133.02L65.49 132.97L65.36 132.91L65.23 132.85L65.1 132.78L64.97 132.7L64.85 132.62L64.73 132.54L64.61 132.45L64.5 132.36L64.39 132.26L64.29 132.16L64.19 132.05L64.09 131.95L64 131.83L63.91 131.72L63.83 131.6L63.75 131.48L63.67 131.35L63.6 131.22L63.54 131.09L63.48 130.95L63.42 130.82L63.38 130.68L63.33 130.53L63.29 130.39L63.26 130.24L63.23 130.09L63.21 129.94L63.2 129.78L63.19 129.63L63.18 129.47L63.18 101.87L62.53 101.73L61.88 101.56L61.24 101.37L60.61 101.16L60 100.93L59.39 100.68L58.79 100.41L58.2 100.12L57.63 99.81L57.06 99.48L56.51 99.14L55.97 98.77L55.44 98.39L54.93 97.99L54.43 97.58L53.95 97.14L53.48 96.7L53.03 96.23L52.59 95.75L52.16 95.26L51.76 94.75L51.37 94.23L51 93.7L50.64 93.15L50.31 92.59L49.99 92.02L49.69 91.44L49.41 90.84L49.15 90.24L48.91 89.62L48.7 89L48.5 88.36L48.32 87.72L48.17 87.06L48.04 86.4L47.93 85.73L47.85 85.05L47.79 84.37L47.75 83.68L47.74 82.98L47.75 82.29L47.79 81.59L47.85 80.91L47.93 80.23L48.04 79.56L48.17 78.9L48.32 78.25L48.5 77.6L48.7 76.97L48.91 76.34L49.15 75.73L49.41 75.12L49.69 74.53L49.99 73.94L50.31 73.37L50.64 72.81L51 72.27L51.37 71.73L51.76 71.21L52.16 70.7L52.59 70.21L53.03 69.73L53.48 69.27L53.95 68.82L54.43 68.39L54.93 67.97L55.44 67.57L55.97 67.19L56.51 66.83L57.06 66.48L57.63 66.15L58.2 65.84L58.79 65.55L59.39 65.28L60 65.03L60.61 64.8L61.24 64.59L61.88 64.4L62.53 64.24L63.18 64.09L63.18 2.09L63.19 1.93L63.2 1.78L63.21 1.62L63.23 1.47L63.26 1.32L63.29 1.17L63.33 1.03L63.38 0.88L63.42 0.74L63.48 0.61L63.54 0.47L63.6 0.34L63.67 0.21L63.75 0.08L63.83 -0.04L63.91 -0.16L64 -0.27L64.09 -0.39L64.19 -0.49L64.29 -0.6L64.39 -0.7L64.5 -0.8L64.61 -0.89L64.73 -0.98L64.85 -1.06L64.97 -1.14L65.1 -1.21L65.23 -1.28L65.36 -1.35L65.49 -1.41L65.63 -1.46L65.77 -1.51L65.91 -1.56L66.06 -1.6L66.21 -1.63L66.36 -1.66L66.51 -1.68L66.66 -1.69L66.82 -1.7L66.97 -1.71L67.13 -1.7L67.29 -1.69ZM64.3 71.63L63.05 72L61.85 72.5L60.73 73.14L59.69 73.88L58.74 74.74L57.88 75.69L57.14 76.73L56.51 77.85L56 79.05L55.63 80.31L55.4 81.62L55.32 82.98L55.4 84.34L55.63 85.66L56 86.91L56.51 88.11L57.14 89.23L57.88 90.28L58.74 91.23L59.69 92.08L60.73 92.83L61.85 93.46L63.05 93.97L64.3 94.34L65.62 94.57L66.97 94.65L68.33 94.57L69.65 94.34L70.9 93.97L72.1 93.46L73.22 92.83L74.26 92.08L75.21 91.23L76.07 90.28L76.81 89.23L77.44 88.11L77.95 86.91L78.32 85.66L78.55 84.34L78.63 82.98L78.55 81.62L78.32 80.31L77.95 79.05L77.44 77.85L76.81 76.73L76.07 75.69L75.21 74.74L74.26 73.88L73.22 73.14L72.1 72.5L70.9 72L69.65 71.63L68.33 71.4L66.97 71.32L65.62 71.4L64.3 71.63Z" id="a9cS38l8E"></path><path d="M28.33 9.5L28.46 9.51L28.58 9.53L28.71 9.55L28.83 9.58L28.95 9.61L29.07 9.65L29.19 9.69L29.3 9.74L29.42 9.79L29.53 9.84L29.63 9.9L29.74 9.96L29.84 10.03L29.94 10.1L30.04 10.18L30.13 10.25L30.22 10.34L30.31 10.42L30.39 10.51L30.47 10.6L30.55 10.7L30.62 10.79L30.69 10.89L30.76 11L30.82 11.1L30.88 11.21L30.93 11.32L30.98 11.44L31.03 11.55L31.07 11.67L31.11 11.79L31.14 11.91L31.17 12.04L31.19 12.17L31.21 12.29L31.22 12.42L31.23 12.55L31.23 12.69L31.23 38.13L31.78 38.26L32.32 38.4L32.85 38.55L33.37 38.73L33.89 38.92L34.4 39.13L34.89 39.36L35.38 39.61L35.86 39.87L36.34 40.14L36.8 40.43L37.24 40.74L37.68 41.06L38.11 41.4L38.53 41.75L38.93 42.11L39.32 42.49L39.7 42.88L40.07 43.28L40.42 43.69L40.76 44.12L41.08 44.56L41.39 45.01L41.69 45.47L41.97 45.94L42.23 46.42L42.48 46.91L42.71 47.41L42.93 47.92L43.13 48.44L43.31 48.97L43.47 49.5L43.62 50.04L43.75 50.59L43.86 51.15L43.95 51.72L44.02 52.29L44.07 52.86L44.1 53.45L44.11 54.03L44.1 54.62L44.07 55.2L44.02 55.78L43.95 56.35L43.86 56.91L43.75 57.47L43.62 58.02L43.47 58.57L43.31 59.1L43.13 59.63L42.93 60.15L42.71 60.66L42.48 61.16L42.23 61.65L41.97 62.13L41.69 62.61L41.39 63.07L41.08 63.52L40.76 63.96L40.42 64.38L40.07 64.8L39.7 65.2L39.32 65.59L38.93 65.97L38.53 66.34L38.11 66.69L37.68 67.02L37.24 67.34L36.8 67.65L36.34 67.94L35.86 68.22L35.38 68.48L34.89 68.73L34.4 68.95L33.89 69.16L33.37 69.36L32.85 69.54L32.32 69.69L31.78 69.83L31.23 69.95L31.23 120.07L31.23 120.2L31.22 120.33L31.21 120.46L31.19 120.59L31.17 120.72L31.14 120.84L31.11 120.96L31.07 121.08L31.03 121.2L30.98 121.32L30.93 121.43L30.88 121.54L30.82 121.65L30.76 121.76L30.69 121.86L30.62 121.96L30.55 122.06L30.47 122.15L30.39 122.25L30.31 122.33L30.22 122.42L30.13 122.5L30.04 122.58L29.94 122.65L29.84 122.72L29.74 122.79L29.63 122.85L29.53 122.91L29.42 122.97L29.3 123.02L29.19 123.06L29.07 123.1L28.95 123.14L28.83 123.17L28.71 123.2L28.58 123.22L28.46 123.24L28.33 123.26L28.2 123.26L28.07 123.27L27.94 123.26L27.81 123.26L27.68 123.24L27.55 123.22L27.43 123.2L27.31 123.17L27.18 123.14L27.07 123.1L26.95 123.06L26.83 123.02L26.72 122.97L26.61 122.91L26.5 122.85L26.4 122.79L26.3 122.72L26.2 122.65L26.1 122.58L26.01 122.5L25.92 122.42L25.83 122.33L25.75 122.25L25.67 122.15L25.59 122.06L25.51 121.96L25.44 121.86L25.38 121.76L25.32 121.65L25.26 121.54L25.2 121.43L25.15 121.32L25.11 121.2L25.07 121.08L25.03 120.96L25 120.84L24.97 120.72L24.95 120.59L24.93 120.46L24.92 120.33L24.91 120.2L24.91 120.07L24.91 69.98L24.36 69.86L23.82 69.72L23.29 69.56L22.77 69.38L22.25 69.19L21.74 68.98L21.24 68.75L20.75 68.5L20.27 68.24L19.8 67.97L19.34 67.68L18.89 67.37L18.45 67.05L18.03 66.71L17.61 66.36L17.21 65.99L16.82 65.62L16.44 65.23L16.07 64.82L15.72 64.41L15.38 63.98L15.06 63.54L14.75 63.09L14.45 62.63L14.17 62.16L13.91 61.68L13.66 61.18L13.42 60.68L13.21 60.17L13.01 59.65L12.83 59.13L12.66 58.59L12.52 58.05L12.39 57.5L12.28 56.94L12.19 56.37L12.12 55.8L12.07 55.23L12.04 54.64L12.03 54.06L12.04 53.47L12.07 52.89L12.12 52.31L12.19 51.74L12.28 51.17L12.39 50.62L12.52 50.07L12.66 49.52L12.83 48.99L13.01 48.46L13.21 47.94L13.42 47.43L13.66 46.93L13.91 46.44L14.17 45.95L14.45 45.48L14.75 45.02L15.06 44.57L15.38 44.13L15.72 43.7L16.07 43.29L16.44 42.89L16.82 42.5L17.21 42.12L17.61 41.75L18.03 41.4L18.45 41.07L18.89 40.74L19.34 40.44L19.8 40.15L20.27 39.87L20.75 39.61L21.24 39.36L21.74 39.14L22.25 38.92L22.77 38.73L23.29 38.55L23.82 38.4L24.36 38.26L24.91 38.13L24.91 12.69L24.91 12.55L24.92 12.42L24.93 12.29L24.95 12.17L24.97 12.04L25 11.91L25.03 11.79L25.07 11.67L25.11 11.55L25.15 11.44L25.2 11.32L25.26 11.21L25.32 11.1L25.38 11L25.44 10.89L25.51 10.79L25.59 10.7L25.67 10.6L25.75 10.51L25.83 10.42L25.92 10.34L26.01 10.25L26.1 10.18L26.2 10.1L26.3 10.03L26.4 9.96L26.5 9.9L26.61 9.84L26.72 9.79L26.83 9.74L26.95 9.69L27.07 9.65L27.18 9.61L27.31 9.58L27.43 9.55L27.55 9.53L27.68 9.51L27.81 9.5L27.94 9.49L28.07 9.49L28.2 9.49L28.33 9.5ZM25.49 44.57L24.29 45L23.17 45.57L22.13 46.27L21.2 47.11L20.38 48.05L19.68 49.1L19.12 50.23L18.7 51.44L18.44 52.72L18.35 54.06L18.44 55.39L18.7 56.67L19.12 57.88L19.68 59.02L20.38 60.06L21.2 61.01L22.13 61.84L23.17 62.55L24.29 63.12L25.49 63.54L26.75 63.8L28.07 63.89L29.38 63.8L30.64 63.54L31.84 63.12L32.96 62.55L34 61.84L34.93 61.01L35.75 60.06L36.45 59.02L37.02 57.88L37.44 56.67L37.7 55.39L37.79 54.06L37.7 52.72L37.44 51.44L37.02 50.23L36.46 49.1L35.76 48.05L34.94 47.11L34.01 46.27L32.97 45.57L31.85 45L30.65 44.57L29.39 44.31L28.07 44.22L26.75 44.31L25.49 44.57Z" id="aGkck3SGg"></path><path d="M105.51 9.5L105.64 9.51L105.77 9.53L105.89 9.55L106.02 9.58L106.14 9.61L106.26 9.65L106.37 9.69L106.49 9.74L106.6 9.79L106.71 9.84L106.82 9.9L106.92 9.96L107.03 10.03L107.12 10.1L107.22 10.18L107.31 10.25L107.41 10.34L107.49 10.42L107.58 10.51L107.66 10.6L107.73 10.7L107.81 10.79L107.88 10.89L107.94 11L108.01 11.1L108.06 11.21L108.12 11.32L108.17 11.44L108.21 11.55L108.25 11.67L108.29 11.79L108.32 11.91L108.35 12.04L108.37 12.17L108.39 12.29L108.4 12.42L108.41 12.55L108.41 12.69L108.41 38.13L108.96 38.26L109.5 38.4L110.04 38.55L110.56 38.73L111.08 38.92L111.59 39.13L112.09 39.36L112.58 39.61L113.06 39.87L113.53 40.14L113.99 40.43L114.44 40.74L114.88 41.06L115.31 41.4L115.72 41.75L116.12 42.11L116.52 42.49L116.89 42.88L117.26 43.28L117.61 43.69L117.95 44.12L118.27 44.56L118.58 45.01L118.88 45.47L119.16 45.94L119.42 46.42L119.67 46.91L119.9 47.41L120.12 47.92L120.32 48.44L120.5 48.97L120.66 49.5L120.81 50.04L120.93 50.59L121.04 51.15L121.13 51.72L121.2 52.29L121.25 52.86L121.28 53.45L121.29 54.03L121.28 54.62L121.25 55.2L121.2 55.78L121.13 56.35L121.04 56.91L120.93 57.47L120.8 58.02L120.66 58.57L120.49 59.1L120.31 59.63L120.11 60.15L119.9 60.66L119.66 61.16L119.42 61.65L119.15 62.13L118.87 62.61L118.58 63.07L118.27 63.52L117.94 63.96L117.6 64.38L117.25 64.8L116.88 65.2L116.51 65.59L116.11 65.97L115.71 66.34L115.29 66.69L114.87 67.02L114.43 67.34L113.98 67.65L113.52 67.94L113.05 68.22L112.57 68.48L112.08 68.73L111.58 68.95L111.07 69.16L110.56 69.36L110.03 69.54L109.5 69.69L108.96 69.83L108.41 69.95L108.41 120.09L108.41 120.22L108.4 120.36L108.39 120.48L108.37 120.61L108.35 120.74L108.32 120.86L108.29 120.99L108.25 121.11L108.21 121.22L108.17 121.34L108.12 121.45L108.06 121.57L108.01 121.67L107.94 121.78L107.88 121.88L107.81 121.99L107.73 122.08L107.66 122.18L107.58 122.27L107.49 122.36L107.41 122.44L107.31 122.52L107.22 122.6L107.12 122.68L107.03 122.75L106.92 122.81L106.82 122.88L106.71 122.94L106.6 122.99L106.49 123.04L106.37 123.09L106.26 123.13L106.14 123.17L106.02 123.2L105.89 123.23L105.77 123.25L105.64 123.27L105.51 123.28L105.38 123.29L105.25 123.29L105.12 123.29L104.99 123.28L104.86 123.27L104.74 123.25L104.61 123.23L104.49 123.2L104.37 123.17L104.25 123.13L104.13 123.09L104.02 123.04L103.91 122.99L103.8 122.94L103.69 122.88L103.58 122.81L103.48 122.75L103.38 122.68L103.28 122.6L103.19 122.52L103.1 122.44L103.01 122.36L102.93 122.27L102.85 122.18L102.77 122.08L102.7 121.99L102.63 121.88L102.56 121.78L102.5 121.67L102.44 121.57L102.39 121.45L102.34 121.34L102.29 121.22L102.25 121.11L102.22 120.99L102.18 120.86L102.16 120.74L102.13 120.61L102.11 120.48L102.1 120.36L102.09 120.22L102.09 120.09L102.09 69.98L101.55 69.86L101.01 69.72L100.47 69.56L99.95 69.38L99.43 69.19L98.93 68.98L98.43 68.75L97.94 68.5L97.46 68.24L96.99 67.97L96.53 67.68L96.08 67.37L95.64 67.05L95.21 66.71L94.8 66.36L94.39 65.99L94 65.62L93.62 65.23L93.26 64.82L92.9 64.41L92.56 63.98L92.24 63.54L91.93 63.09L91.63 62.63L91.35 62.16L91.09 61.68L90.84 61.18L90.61 60.68L90.39 60.17L90.19 59.65L90.01 59.13L89.85 58.59L89.7 58.05L89.57 57.5L89.46 56.94L89.37 56.37L89.3 55.8L89.25 55.23L89.22 54.64L89.21 54.06L89.22 53.47L89.25 52.89L89.3 52.31L89.37 51.74L89.46 51.17L89.57 50.62L89.7 50.07L89.85 49.52L90.01 48.99L90.19 48.46L90.39 47.94L90.61 47.43L90.84 46.93L91.09 46.44L91.35 45.95L91.63 45.48L91.93 45.02L92.24 44.57L92.56 44.13L92.9 43.7L93.26 43.29L93.62 42.89L94 42.5L94.39 42.12L94.8 41.75L95.21 41.4L95.64 41.07L96.08 40.74L96.53 40.44L96.99 40.15L97.46 39.87L97.94 39.61L98.43 39.36L98.93 39.14L99.43 38.92L99.95 38.73L100.47 38.55L101.01 38.4L101.55 38.26L102.09 38.13L102.09 12.69L102.09 12.55L102.1 12.42L102.11 12.29L102.13 12.17L102.16 12.04L102.18 11.91L102.22 11.79L102.25 11.67L102.29 11.55L102.34 11.44L102.39 11.32L102.44 11.21L102.5 11.1L102.56 11L102.63 10.89L102.7 10.79L102.77 10.7L102.85 10.6L102.93 10.51L103.01 10.42L103.1 10.34L103.19 10.25L103.28 10.18L103.38 10.1L103.48 10.03L103.58 9.96L103.69 9.9L103.8 9.84L103.91 9.79L104.02 9.74L104.13 9.69L104.25 9.65L104.37 9.61L104.49 9.58L104.61 9.55L104.74 9.53L104.86 9.51L104.99 9.5L105.12 9.49L105.25 9.49L105.38 9.49L105.51 9.5ZM102.67 44.57L101.47 45L100.35 45.57L99.32 46.27L98.38 47.11L97.56 48.05L96.86 49.1L96.3 50.23L95.88 51.44L95.62 52.72L95.53 54.06L95.62 55.39L95.88 56.67L96.3 57.88L96.86 59.02L97.56 60.06L98.38 61.01L99.32 61.84L100.35 62.55L101.47 63.12L102.67 63.54L103.94 63.8L105.25 63.89L106.57 63.8L107.83 63.54L109.03 63.12L110.16 62.55L111.19 61.84L112.12 61.01L112.94 60.06L113.64 59.02L114.21 57.88L114.62 56.67L114.88 55.39L114.97 54.06L114.88 52.72L114.62 51.44L114.21 50.23L113.64 49.1L112.94 48.05L112.12 47.11L111.19 46.27L110.16 45.57L109.03 45L107.83 44.57L106.57 44.31L105.25 44.22L103.94 44.31L102.67 44.57Z" id="f5pERiSiH"></path></defs><g><g><g><use xlink:href="#bvBC0MUAo" opacity="1" fill="#000000" fill-opacity="1"></use></g><g><use xlink:href="#a9cS38l8E" opacity="1" fill="#ffffff" fill-opacity="1"></use><g><use xlink:href="#a9cS38l8E" opacity="1" fill-opacity="0" stroke="#000000" stroke-width="1" stroke-opacity="0"></use></g></g><g><use xlink:href="#aGkck3SGg" opacity="1" fill="#ffffff" fill-opacity="1"></use><g><use xlink:href="#aGkck3SGg" opacity="1" fill-opacity="0" stroke="#000000" stroke-width="1" stroke-opacity="0"></use></g></g><g><use xlink:href="#f5pERiSiH" opacity="1" fill="#ffffff" fill-opacity="1"></use><g><use xlink:href="#f5pERiSiH" opacity="1" fill-opacity="0" stroke="#000000" stroke-width="1" stroke-opacity="0"></use></g></g></g></g></svg>